<?xml version="1.0" encoding="UTF-8" standalone="no"?>
<!-- Created with Inkscape (http://www.inkscape.org/) -->
<svg xmlns:inkscape="http://www.inkscape.org/namespaces/inkscape" xmlns:rdf="http://www.w3.org/1999/02/22-rdf-syntax-ns#" xmlns="http://www.w3.org/2000/svg" xmlns:xlink="http://www.w3.org/1999/xlink" xmlns:ns1="http://sozi.baierouge.fr" xmlns:cc="http://creativecommons.org/ns#" xmlns:sodipodi="http://sodipodi.sourceforge.net/DTD/sodipodi-0.dtd" xmlns:dc="http://purl.org/dc/elements/1.1/" id="svg2" xml:space="preserve" viewBox="0 0 43.25 31.798" version="1.1" inkscape:version="0.91 r13725">
  <defs id="defs6">
    <linearGradient id="linearGradient56" y2="-16.697" gradientUnits="userSpaceOnUse" x2="10.864" gradientTransform="matrix(.06256 -.79752 -.79752 -.06256 -.00027371 25.44)" y1="-16.697" x1="8.3062">
      <stop id="stop58" style="stop-color:#bf9e23" offset="0"/>
      <stop id="stop60" style="stop-color:#e3bc29" offset=".98820"/>
      <stop id="stop62" style="stop-color:#e3bc29" offset="1"/>
    </linearGradient>
    <linearGradient id="linearGradient76" y2="-17.589" gradientUnits="userSpaceOnUse" x2="6.2545" gradientTransform="matrix(.07008 -.79696 -.79696 -.07008 .000152 25.44)" y1="-17.589" x1="3.9707">
      <stop id="stop78" style="stop-color:#bf9e23" offset="0"/>
      <stop id="stop80" style="stop-color:#e3bc29" offset=".98820"/>
      <stop id="stop82" style="stop-color:#e3bc29" offset="1"/>
    </linearGradient>
    <linearGradient id="linearGradient98" y2="-13.195" gradientUnits="userSpaceOnUse" x2="10.193" gradientTransform="matrix(.22304 -.76824 -.77136 -.21232 .00025859 25.44)" y1="-13.195" x1="9.3857">
      <stop id="stop100" style="stop-color:#deb416" offset="0"/>
      <stop id="stop102" style="stop-color:#ffd742" offset=".98820"/>
      <stop id="stop104" style="stop-color:#ffd742" offset="1"/>
    </linearGradient>
    <linearGradient id="linearGradient118" y2="-12.751" gradientUnits="userSpaceOnUse" x2="14.786" gradientTransform="matrix(.21976 -.7692 -.77152 -.21176 .00018952 25.44)" y1="-12.751" x1="13.876">
      <stop id="stop120" style="stop-color:#deb416" offset="0"/>
      <stop id="stop122" style="stop-color:#ffd742" offset=".98820"/>
      <stop id="stop124" style="stop-color:#ffd742" offset="1"/>
    </linearGradient>
    <linearGradient id="linearGradient142" y2="-9.9893" gradientUnits="userSpaceOnUse" x2="13.778" gradientTransform="matrix(.2136 -.77096 -.77096 -.2136 -.000010824 25.44)" y1="-9.9893" x1="11.158">
      <stop id="stop144" style="stop-color:#deb416" offset="0"/>
      <stop id="stop146" style="stop-color:#ffd742" offset=".98820"/>
      <stop id="stop148" style="stop-color:#ffd742" offset="1"/>
    </linearGradient>
    <linearGradient id="linearGradient162" y2="-10.42" gradientUnits="userSpaceOnUse" x2="17.15" gradientTransform="matrix(.21192 -.77144 -.77144 -.21192 .00020346 25.44)" y1="-10.42" x1="15.233">
      <stop id="stop164" style="stop-color:#deb416" offset="0"/>
      <stop id="stop166" style="stop-color:#ffd742" offset=".98820"/>
      <stop id="stop168" style="stop-color:#ffd742" offset="1"/>
    </linearGradient>
    <linearGradient id="linearGradient182" y2="-7.7417" gradientUnits="userSpaceOnUse" x2="11.028" gradientTransform="matrix(.2136 -.77096 -.77096 -.2136 -.000010824 25.44)" y1="-7.7417" x1="8.4082">
      <stop id="stop184" style="stop-color:#deb416" offset="0"/>
      <stop id="stop186" style="stop-color:#ffd742" offset=".98820"/>
      <stop id="stop188" style="stop-color:#ffd742" offset="1"/>
    </linearGradient>
    <linearGradient id="linearGradient210" y2="-1.2256" gradientUnits="userSpaceOnUse" x2="12.546" gradientTransform="matrix(.21776 -.76984 -.76984 -.21776 .00025728 25.44)" y1="-1.2256" x1="9.9741">
      <stop id="stop212" style="stop-color:#deb416" offset="0"/>
      <stop id="stop214" style="stop-color:#ffd742" offset=".98820"/>
      <stop id="stop216" style="stop-color:#ffd742" offset="1"/>
    </linearGradient>
    <linearGradient id="linearGradient230" y2="-.9971" gradientUnits="userSpaceOnUse" x2="15.1" gradientTransform="matrix(.2636 -.75536 -.75536 -.2636 -.00024514 25.44)" y1="-.9971" x1="13.139">
      <stop id="stop232" style="stop-color:#deb416" offset="0"/>
      <stop id="stop234" style="stop-color:#ffd742" offset=".98820"/>
      <stop id="stop236" style="stop-color:#ffd742" offset="1"/>
    </linearGradient>
    <linearGradient id="linearGradient250" y2="-4.7856" gradientUnits="userSpaceOnUse" x2="15.037" gradientTransform="matrix(.21416 -.7708 -.7708 -.21416 .00013728 25.44)" y1="-4.7856" x1="11.61">
      <stop id="stop252" style="stop-color:#deb416" offset="0"/>
      <stop id="stop254" style="stop-color:#ffd742" offset=".98820"/>
      <stop id="stop256" style="stop-color:#ffd742" offset="1"/>
    </linearGradient>
    <linearGradient id="linearGradient270" y2="-6.418" gradientUnits="userSpaceOnUse" x2="18.214" gradientTransform="matrix(.21232 -.77128 -.77128 -.21232 .000097344 25.44)" y1="-6.418" x1="16.346">
      <stop id="stop272" style="stop-color:#deb416" offset="0"/>
      <stop id="stop274" style="stop-color:#ffd742" offset=".98820"/>
      <stop id="stop276" style="stop-color:#ffd742" offset="1"/>
    </linearGradient>
    <linearGradient id="linearGradient290" y2="4.3105" gradientUnits="userSpaceOnUse" x2="7.6782" gradientTransform="matrix(.72832 -.33104 -.33104 -.72832 -.00011516 25.44)" y1="4.3105" x1="6.772">
      <stop id="stop292" style="stop-color:#deb416" offset="0"/>
      <stop id="stop294" style="stop-color:#ffd742" offset=".98820"/>
      <stop id="stop296" style="stop-color:#ffd742" offset="1"/>
    </linearGradient>
    <linearGradient id="linearGradient310" y2="2.7427" gradientUnits="userSpaceOnUse" x2="10.162" gradientTransform="matrix(.7036 -.3808 -.3808 -.7036 .0000071526 25.44)" y1="2.7427" x1="8.9429">
      <stop id="stop312" style="stop-color:#deb416" offset="0"/>
      <stop id="stop314" style="stop-color:#ffd742" offset=".98820"/>
      <stop id="stop316" style="stop-color:#ffd742" offset="1"/>
    </linearGradient>
    <linearGradient id="linearGradient330" y2="-1.1162" gradientUnits="userSpaceOnUse" x2="11.869" gradientTransform="matrix(.73408 -.31808 -.34736 -.72136 .000038075 25.44)" y1="-1.1162" x1="11.051">
      <stop id="stop332" style="stop-color:#deb416" offset="0"/>
      <stop id="stop334" style="stop-color:#ffd742" offset=".98820"/>
      <stop id="stop336" style="stop-color:#ffd742" offset="1"/>
    </linearGradient>
    <linearGradient id="linearGradient350" y2="-2.6104" gradientUnits="userSpaceOnUse" x2="13.946" gradientTransform="matrix(.68064 -.4204 -.42952 -.67496 -.00012641 25.44)" y1="-2.6104" x1="12.947">
      <stop id="stop352" style="stop-color:#deb416" offset="0"/>
      <stop id="stop354" style="stop-color:#ffd742" offset=".98820"/>
      <stop id="stop356" style="stop-color:#ffd742" offset="1"/>
    </linearGradient>
    <linearGradient id="linearGradient370" y2="-8.5308" gradientUnits="userSpaceOnUse" x2="15.721" gradientTransform="matrix(.66152 -.44984 -.40272 -.6936 .0000988 25.44)" y1="-8.5308" x1="14.965">
      <stop id="stop372" style="stop-color:#deb416" offset="0"/>
      <stop id="stop374" style="stop-color:#ffd742" offset=".98820"/>
      <stop id="stop376" style="stop-color:#ffd742" offset="1"/>
    </linearGradient>
    <linearGradient id="linearGradient390" y2="-6.8203" gradientUnits="userSpaceOnUse" x2="16.138" gradientTransform="matrix(.6528 -.4624 -.38568 -.70712 .000060630 25.44)" y1="-6.8203" x1="15.402">
      <stop id="stop392" style="stop-color:#deb416" offset="0"/>
      <stop id="stop394" style="stop-color:#ffd742" offset=".98820"/>
      <stop id="stop396" style="stop-color:#ffd742" offset="1"/>
    </linearGradient>
  </defs>
  <g id="g10" transform="matrix(1.25 0 0 -1.25 0 31.798)">
    <g id="g12">
      <path id="path14" style="fill-rule:evenodd;fill:#a37f24" d="m34.559 16.239 0.043-1.48c-2.911-3.118-5.575-5.84-8-8.161-2.43-2.32-4.856-4.519-7.282-6.597l-1.8 1.879-4.442 14.761 21.481-0.402z" inkscape:connector-curvature="0"/>
      <path id="path16" style="fill-rule:evenodd;fill:#b38b27" d="m34.559 16.239 0.043-1.48-0.641-0.68c-0.027 0.855-0.055 1.359-0.082 1.519h-0.078l-0.321 0.204c-0.16 0.132-0.335 0.238-0.519 0.32-0.32 0.156-0.496 0.066-0.52-0.281-0.027-0.586-0.015-1.696 0.039-3.321l-1.359-1.398c0 2.211-0.094 3.344-0.281 3.398l-0.242 1.801 3.961-0.082z" inkscape:connector-curvature="0"/>
      <path id="path18" style="fill-rule:evenodd;fill:#b38b27" d="m18.922 16.52 7.558-0.121c-0.507-1.945-0.64-3.613-0.402-5 0.11-0.64 0.149-1.332 0.121-2.078 0-0.215-0.066-1.308-0.199-3.281l-1.238-1.199c0.105 1.945 0.066 3.226-0.121 3.839-0.266 0.426-0.469 0.868-0.602 1.321-0.184 0.801-0.453 0.894-0.801 0.277-0.371-0.637-0.519-1.691-0.437-3.156 0.054-1.149 0.133-2.43 0.238-3.844l-0.437-0.359c0.05 2.562-0.082 3.988-0.403 4.281l-0.519-0.32-0.321-2.039-0.121-3.161-0.718-0.64-0.079 3.082c-0.695 5.09-1.203 9.223-1.519 12.398z" inkscape:connector-curvature="0"/>
      <path id="path20" style="fill-rule:evenodd;fill:#b38b27" d="m29.559 9.52-1.079-1.082c0.079 1.895 0.079 3.508 0 4.84-0.132 1.203-0.226 2-0.281 2.402-0.054 0.348-0.105 0.575-0.16 0.68h1.563c-0.055-0.613-0.055-1.148 0-1.601 0.05-0.586 0.039-2.332-0.043-5.239z" inkscape:connector-curvature="0"/>
      <path id="path22" style="fill-rule:evenodd;fill:#ba9129" d="m0.398 10.68-0.398 2.079 10.039 3.121 4.801-3.16c3.172-2.375 4.695-4.239 4.558-5.598-0.183-2.215-0.21-4.59-0.078-7.121-3.679 1.945-7.132 3.824-10.359 5.64-2.746 1.547-5.602 3.227-8.563 5.039z" inkscape:connector-curvature="0"/>
      <path id="path24" style="fill-rule:evenodd;fill:#d6a731" d="m0 12.759c2.906 2.054 5.785 4.027 8.641 5.921 2.879 1.895 5.453 3.508 7.718 4.84l18.2-7.281c-4.934-4.16-8.227-7-9.879-8.519-1.653-1.52-3.465-3.04-5.442-4.559-4.879 2.559-8.703 4.504-11.476 5.84l-7.762 3.758z" inkscape:connector-curvature="0"/>
      <path id="path26" style="fill-rule:evenodd;fill:#e3b236" d="m3.602 11.001c-0.348 0.426-0.707 0.945-1.082 1.558-0.399 0.614-0.692 1.067-0.879 1.36l1.757 1.203c0.215-0.27 0.575-0.895 1.082-1.883 0.532-1.039 1.067-1.945 1.598-2.719 0.668-0.961 2.055-1.652 4.16-2.082 3.254-0.664 5.348-1.172 6.282-1.519 1.812-0.692 3.425-1.387 4.839-2.078l-0.918-0.719c-1.468 0.691-3.054 1.277-4.761 1.758l-3.239 0.8-8.839 4.321z" inkscape:connector-curvature="0"/>
      <path id="path28" style="fill-rule:evenodd;fill:#e3b236" d="m24.641 7.68c-1.414 0.375-3.149 1.133-5.2 2.282-2.16 1.25-3.64 2.093-4.441 2.519-0.773 0.399-1.625 1.332-2.559 2.797-0.507 0.828-1.296 2.27-2.363 4.32l0.641 0.442 0.883-1.762c1.41-2.984 4.824-5.598 10.238-7.84 1.601-0.691 3.055-1.144 4.359-1.359l-1.558-1.399z" inkscape:connector-curvature="0"/>
      <path id="path30" style="fill-rule:evenodd;fill:#e3b236" d="m34.559 16.239-0.758-0.641-0.321 0.204c-0.32 0.211-1.187 0.839-2.601 1.878l3.68-1.441z" inkscape:connector-curvature="0"/>
      <path id="path32" style="fill-rule:evenodd;fill:#e3b236" d="m17.32 9.72c2.078-0.961 4.055-2.055 5.918-3.282l-0.918-0.797c-0.933 0.637-2.027 1.305-3.281 2-2.293 1.2-5.961 2.227-11 3.079-0.961 0.16-1.812 0.8-2.559 1.921-0.347 0.504-0.839 1.465-1.48 2.879l1.16 0.801c0.879-2.773 2.586-4.469 5.121-5.082 0.211-0.051 1.36-0.238 3.438-0.559 1.469-0.214 2.668-0.535 3.601-0.96z" inkscape:connector-curvature="0"/>
      <path id="path34" style="fill-rule:evenodd;fill:#e3b236" d="m20.52 21.841c-0.825-0.243-1.586-0.36-2.282-0.36-1.703 0-2.984 0.278-3.84 0.84l1.961 1.199 4.161-1.679z" inkscape:connector-curvature="0"/>
      <path id="path36" style="fill-rule:evenodd;fill:#e3b236" d="m23.602 16.641c-3.79 0.852-5.79 1.305-6 1.36-1.122 0.32-2.094 0.812-2.922 1.48-0.559 0.481-1.149 1.133-1.758 1.957l1.359 0.801c1.067-1.277 1.985-2.144 2.758-2.598 0.723-0.429 2.469-0.949 5.242-1.562 3.145-0.691 5.614-1.414 7.399-2.16 1.359-0.614 2.293-1.094 2.8-1.438l-1.441-1.242-2.238 1.52c-1.149 0.746-2.879 1.375-5.199 1.882z" inkscape:connector-curvature="0"/>
      <path id="path38" style="fill-rule:evenodd;fill:#e3b236" d="m8.441 18.52 0.2 0.16 0.757 0.481c1.414-1.359 2.336-2.734 2.762-4.121 0.453-1.625-0.281-2.332-2.199-2.121-2.106 0.242-3.453 1.547-4.039 3.922l0.719 0.519c0.531-0.851 1.171-1.426 1.918-1.719 0.586-0.269 1.121-0.32 1.601-0.16 0.668 0.211 0.094 1.227-1.719 3.039z" inkscape:connector-curvature="0"/>
      <path id="path40" style="fill-rule:evenodd;fill:#e3b236" d="m25.441 12.278c-2.429 0.668-4.226 1.176-5.402 1.524-2.051 0.586-3.57 1.226-4.559 1.918-0.828 0.558-1.558 1.308-2.199 2.242-0.187 0.238-0.722 1.133-1.601 2.679l0.48 0.278 0.238-0.36c0.641-1.039 2.149-2.105 4.524-3.199 1.223-0.586 3.476-1.48 6.758-2.68 1.812-0.667 3.812-1.535 6-2.601l-1.121-0.957c-0.825 0.371-1.864 0.758-3.118 1.156z" inkscape:connector-curvature="0"/>
      <path id="path42" style="fill-rule:evenodd;fill:#a37f24" d="m27.078 17.841c1.762-0.641 3.524-1.266 5.281-1.879l-2.199-1.082c-0.055 0.855-0.254 1.133-0.601 0.84-0.239-0.215-0.332-0.387-0.278-0.52 0.051-0.105 0.16-0.254 0.321-0.441 0.132-0.239 0.398-0.438 0.796-0.598l-0.558-0.84c-0.238-0.348-0.52-0.668-0.84-0.961-0.398-0.347-0.762-0.668-1.078-0.961-0.375-0.371-0.574-0.691-0.602-0.961 0-0.16 0.028-0.265 0.078-0.316l-1.718-1.442c-0.133-0.132-0.414-0.32-0.84-0.558l-0.641-0.281 0.199-0.321-1.519-1.441-0.598-0.199c-0.242-0.078-0.695-0.121-1.359-0.121h-0.922l-0.441-0.2c-0.266-0.132-0.797-0.16-1.598-0.078-0.934 0.078-1.734 0.278-2.402 0.598-0.348 0.16-0.481 0.508-0.399 1.043 0.078 0.719 0.094 1.144 0.039 1.277-0.078 0.215-0.133 0.746-0.16 1.602-0.027 0.801-0.094 1.293-0.199 1.48-0.188 0.266-0.492 0.504-0.918 0.719-0.508 0.266-1.027 0.398-1.563 0.398-0.504 0-0.812-0.105-0.918-0.32-0.054-0.133-0.054-0.371 0-0.719 0.079-0.293-0.015-0.492-0.281-0.597-0.293-0.11-0.734-0.043-1.32 0.199l-7.399 2.519 0.399 1.2 9.039 5.519 0.402-0.199 2.278 2.238 3.203-1.078 1.558 0.281c0.188 0.051 0.918-0.507 2.2-1.679 0.132-0.11 1.988-0.817 5.558-2.121z" inkscape:connector-curvature="0"/>
      <path id="path44" style="fill-rule:evenodd;fill:#d1ad26" d="m13.641 12.802-0.321 8.277 0.801 3.48 0.52 0.602 0.039-4.242c0-0.586-0.039-1.051-0.121-1.399l-0.918-6.718z" inkscape:connector-curvature="0"/>
      <g id="g46">
        <g id="g48">
          <g id="g54">
            <path id="path64" style="fill-rule:evenodd;fill:url(#linearGradient56)" d="m14.121 18.802c0-0.696-0.066-1.043-0.199-1.043-0.137 0-0.203 0.347-0.203 1.043 0 0.664 0.066 1 0.203 1 0.133 0 0.199-0.336 0.199-1z" inkscape:connector-curvature="0"/>
          </g>
        </g>
      </g>
      <g id="g66">
        <g id="g68">
          <g id="g74">
            <path id="path84" style="fill-rule:evenodd;fill:url(#linearGradient76)" d="m14.602 22.52c0-0.586-0.067-0.879-0.204-0.879-0.16 0-0.238 0.293-0.238 0.879 0 0.614 0.078 0.918 0.238 0.918 0.137 0 0.204-0.304 0.204-0.918z" inkscape:connector-curvature="0"/>
          </g>
        </g>
      </g>
      <path id="path86" style="fill-rule:evenodd;fill:#f0c72b" d="m13.32 24.161 0.321-11.359c-0.028 0.293-0.121 0.757-0.282 1.398l-1.078 3.922v0.558c0 0.375-0.16 2.465-0.48 6.282l1.519-0.801z" inkscape:connector-curvature="0"/>
      <g id="g88">
        <g id="g90">
          <g id="g96">
            <path id="path106" style="fill-rule:evenodd;fill:url(#linearGradient98)" d="m12.559 20.641c0.054-0.8 0.015-1.203-0.118-1.203-0.082 0-0.148 0.387-0.203 1.16-0.05 0.747-0.023 1.149 0.082 1.204 0.106 0 0.188-0.387 0.239-1.161z" inkscape:connector-curvature="0"/>
          </g>
        </g>
      </g>
      <g id="g108">
        <g id="g110">
          <g id="g116">
            <path id="path126" style="fill-rule:evenodd;fill:url(#linearGradient118)" d="m13.199 17.04c0.055-0.746 0.016-1.121-0.121-1.121-0.105-0.051-0.183 0.308-0.238 1.082 0 0.691 0.039 1.066 0.121 1.121 0.105 0 0.184-0.363 0.238-1.082z" inkscape:connector-curvature="0"/>
          </g>
        </g>
      </g>
      <path id="path128" style="fill-rule:evenodd;fill:#ffdc59" d="m11.801 24.962 0.277 0.078c0.297 0.082 0.684 0.121 1.16 0.121h1.403c-0.215-0.481-0.426-1.215-0.641-2.199l-0.641-3.563-0.558 1.879c-0.266 0.883-0.602 2.11-1 3.684z" inkscape:connector-curvature="0"/>
      <path id="path130" style="fill-rule:evenodd;fill:#f0c72b" d="m10.602 21.122 1.519-2.043 0.277-5.801c-1.117 0.563-2.066 1.16-2.839 1.801l-2.039 1.562c-0.106 0.454-0.172 0.879-0.2 1.278l-0.281 4.761 1.281 0.04 2.282-1.598z" inkscape:connector-curvature="0"/>
      <g id="g132">
        <g id="g134">
          <g id="g140">
            <path id="path150" style="fill-rule:evenodd;fill:url(#linearGradient142)" d="m10.922 17.88c0.051-0.907-0.094-1.387-0.442-1.442-0.132-0.023-0.265 0.094-0.402 0.364-0.105 0.238-0.172 0.558-0.199 0.957-0.024 0.375 0.016 0.707 0.121 1 0.078 0.269 0.188 0.414 0.32 0.441 0.321 0.055 0.52-0.387 0.602-1.32z" inkscape:connector-curvature="0"/>
          </g>
        </g>
      </g>
      <g id="g152">
        <g id="g154">
          <g id="g160">
            <path id="path170" style="fill-rule:evenodd;fill:url(#linearGradient162)" d="m11.84 15.122c0.055-0.641-0.051-0.961-0.32-0.961-0.215-0.055-0.348 0.227-0.399 0.84-0.055 0.613 0.051 0.945 0.32 1 0.266 0 0.399-0.293 0.399-0.879z" inkscape:connector-curvature="0"/>
          </g>
        </g>
      </g>
      <g id="g172">
        <g id="g174">
          <g id="g180">
            <path id="path190" style="fill-rule:evenodd;fill:url(#linearGradient182)" d="m8.559 19.559c0.027-0.371 0-0.707-0.079-1-0.105-0.293-0.226-0.453-0.359-0.48-0.133-0.024-0.254 0.094-0.359 0.359-0.11 0.27-0.176 0.59-0.203 0.961-0.024 0.375 0.015 0.707 0.121 1 0.082 0.293 0.187 0.453 0.32 0.481 0.32 0.054 0.508-0.387 0.559-1.321z" inkscape:connector-curvature="0"/>
          </g>
        </g>
      </g>
      <path id="path192" style="fill-rule:evenodd;fill:#ffdc59" d="m7.039 22.72 1.441 0.878 1.68 0.641 1.801-4.879 0.16-0.32c-1.496 0.988-2.547 1.707-3.16 2.16l-1.922 1.52z" inkscape:connector-curvature="0"/>
      <path id="path194" style="fill-rule:evenodd;fill:#ffd63b" d="m2.441 13.2-0.363 6.199 1.043 0.321 2.481-0.321 4.117-1.64 0.16-6.118c-1.867 0.239-3.211 0.465-4.039 0.68l-3.399 0.879z" inkscape:connector-curvature="0"/>
      <path id="path196" style="fill-rule:evenodd;fill:#ffdc59" d="m9.719 17.759 0.16-5.918c-0.238 3.039-0.481 4.746-0.719 5.121-0.133 0.211-0.64 0.41-1.519 0.597-1.067 0.188-1.829 0.348-2.282 0.481-0.879 0.265-1.972 0.719-3.281 1.359l0.883 0.121 6.758-1.761z" inkscape:connector-curvature="0"/>
      <path id="path198" style="fill-rule:evenodd;fill:#ffdc59" d="m9.719 17.759c-2.266 0.32-3.852 0.586-4.758 0.8-1.121 0.266-2.082 0.547-2.883 0.84 0.563 0.801 1.176 1.387 1.844 1.762 0.664 0.371 1.156 0.574 1.476 0.598l4.321-4z" inkscape:connector-curvature="0"/>
      <g id="g200">
        <g id="g202">
          <g id="g208">
            <path id="path218" style="fill-rule:evenodd;fill:url(#linearGradient210)" d="m3.922 17.04c0.051-0.719-0.094-1.106-0.442-1.16-0.32-0.051-0.507 0.281-0.558 1-0.055 0.695 0.09 1.066 0.437 1.121 0.321 0.054 0.508-0.266 0.563-0.961z" inkscape:connector-curvature="0"/>
          </g>
        </g>
      </g>
      <g id="g220">
        <g id="g222">
          <g id="g228">
            <path id="path238" style="fill-rule:evenodd;fill:url(#linearGradient230)" d="m4.879 15.04c0.055-0.535-0.039-0.828-0.277-0.879-0.27-0.082-0.43 0.144-0.481 0.68-0.027 0.214 0 0.414 0.078 0.597 0.055 0.188 0.133 0.297 0.242 0.321 0.239 0.109 0.387-0.133 0.438-0.719z" inkscape:connector-curvature="0"/>
          </g>
        </g>
      </g>
      <g id="g240">
        <g id="g242">
          <g id="g248">
            <path id="path258" style="fill-rule:evenodd;fill:url(#linearGradient250)" d="m7.238 16.161c0.028-0.402-0.023-0.762-0.16-1.082-0.105-0.293-0.25-0.453-0.437-0.481-0.188-0.05-0.348 0.067-0.481 0.364-0.133 0.265-0.215 0.597-0.238 1-0.027 0.398 0.012 0.758 0.117 1.078 0.133 0.293 0.293 0.453 0.481 0.48 0.187 0.028 0.347-0.093 0.48-0.359s0.215-0.602 0.238-1z" inkscape:connector-curvature="0"/>
          </g>
        </g>
      </g>
      <g id="g260">
        <g id="g262">
          <g id="g268">
            <path id="path278" style="fill-rule:evenodd;fill:url(#linearGradient270)" d="m9 13.438c0.055-0.531-0.055-0.824-0.32-0.879-0.215-0.05-0.348 0.2-0.399 0.762 0 0.531 0.106 0.824 0.321 0.879 0.105 0.027 0.199-0.039 0.277-0.199 0.082-0.16 0.121-0.348 0.121-0.563z" inkscape:connector-curvature="0"/>
          </g>
        </g>
      </g>
      <g id="g280">
        <g id="g282">
          <g id="g288">
            <path id="path298" style="fill-rule:evenodd;fill:url(#linearGradient290)" d="m3.801 20.36c0.371 0.106 0.558 0.012 0.558-0.281 0.055-0.293-0.093-0.492-0.437-0.598-0.348-0.16-0.547-0.082-0.602 0.239 0 0.293 0.16 0.507 0.481 0.64z" inkscape:connector-curvature="0"/>
          </g>
        </g>
      </g>
      <g id="g300">
        <g id="g302">
          <g id="g308">
            <path id="path318" style="fill-rule:evenodd;fill:url(#linearGradient310)" d="m5.68 20.438c0.187 0.055 0.347 0.043 0.48-0.039 0.16-0.078 0.238-0.199 0.238-0.359 0.055-0.375-0.16-0.625-0.636-0.762-0.43-0.105-0.668 0.043-0.723 0.442-0.027 0.132 0.027 0.281 0.16 0.441 0.133 0.133 0.293 0.227 0.481 0.277z" inkscape:connector-curvature="0"/>
          </g>
        </g>
      </g>
      <g id="g320">
        <g id="g322">
          <g id="g328">
            <path id="path338" style="fill-rule:evenodd;fill:url(#linearGradient330)" d="m8.762 22.962c0.293 0.105 0.465 0.039 0.519-0.203 0-0.211-0.148-0.387-0.441-0.52-0.293-0.105-0.465-0.039-0.52 0.199 0 0.27 0.145 0.442 0.442 0.524z" inkscape:connector-curvature="0"/>
          </g>
        </g>
      </g>
      <g id="g340">
        <g id="g342">
          <g id="g348">
            <path id="path358" style="fill-rule:evenodd;fill:url(#linearGradient350)" d="m10.238 22.001c0.403 0.051 0.602-0.067 0.602-0.36 0-0.32-0.172-0.507-0.52-0.562-0.398-0.051-0.601 0.082-0.601 0.402 0 0.293 0.176 0.465 0.519 0.52z" inkscape:connector-curvature="0"/>
          </g>
        </g>
      </g>
      <g id="g360">
        <g id="g362">
          <g id="g368">
            <path id="path378" style="fill-rule:evenodd;fill:url(#linearGradient370)" d="m13.602 24.841c0.238 0.054 0.386-0.055 0.437-0.321 0-0.265-0.133-0.425-0.398-0.48-0.293-0.055-0.442 0.066-0.442 0.359s0.133 0.442 0.403 0.442z" inkscape:connector-curvature="0"/>
          </g>
        </g>
      </g>
      <g id="g380">
        <g id="g382">
          <g id="g388">
            <path id="path398" style="fill-rule:evenodd;fill:url(#linearGradient390)" d="m12.922 23.399c0.238 0.055 0.383-0.078 0.437-0.398 0-0.321-0.132-0.481-0.398-0.481-0.242-0.054-0.387 0.078-0.441 0.399 0 0.269 0.132 0.426 0.402 0.48z" inkscape:connector-curvature="0"/>
          </g>
        </g>
      </g>
      <path id="path400" style="fill-rule:evenodd;fill:#7d7b16" d="m17.441 20.481c0.399 0.371 0.547 0.68 0.438 0.918-0.078 0.215-0.039 0.215 0.121 0 0.078-0.105 0.172-0.238 0.281-0.398l0.117-0.281c0.028-0.079 0.082-0.04 0.161 0.121 0.109 0.16 0.187 0.199 0.242 0.121 0.078-0.16 0.199-0.535 0.359-1.121 0.051-0.188 0.067-0.082 0.039 0.32 0.055 0.027 0.16-0.293 0.321-0.961 0.16-0.668 0.226-1.16 0.199-1.48-0.133-1.04-0.344-1.985-0.641-2.84-0.105-0.266-0.305-0.575-0.598-0.918-0.292-0.321-0.535-0.496-0.718-0.524-0.508-0.293-0.883-0.425-1.121-0.398-0.161 0.027-0.309 0.133-0.442 0.32l-0.32 0.52c-0.266 0.082-0.426 0.215-0.481 0.398-0.078 0.375-0.171 0.602-0.277 0.684-0.133 0.051-0.215 0.226-0.242 0.519l-0.277 0.879c-0.028 0.32-0.067 0.586-0.122 0.801-0.132 0.105-0.226 0.277-0.281 0.519l-0.16 0.84v1.321l0.441 0.48 0.918-0.082c0.641-0.051 1.043-0.117 1.204-0.199 0.16-0.078 0.437 0.066 0.839 0.441z" inkscape:connector-curvature="0"/>
      <path id="path402" style="fill-rule:evenodd;fill:#a8a51d" d="m18.121 21.04c0.024-0.078 0.094-0.067 0.199 0.039 0.215 0.215 0.375 0.176 0.481-0.117 0.027-0.082 0.039-0.242 0.039-0.481 0.055-0.187 0.105-0.269 0.16-0.242 0.16 0.055 0.266-0.051 0.32-0.32 0.028-0.16 0.055-0.414 0.078-0.758 0.11-0.16 0.149-0.359 0.122-0.602-0.028-0.347-0.133-0.879-0.321-1.597-0.238-0.934-0.465-1.508-0.679-1.723-0.266-0.32-0.692-0.625-1.282-0.918-0.636-0.32-1.023-0.348-1.16-0.082-0.316 0.641-0.519 0.988-0.598 1.039-0.082 0.027-0.16 0.203-0.242 0.524-0.05 0.293-0.093 0.437-0.117 0.437-0.055 0.266-0.109 0.508-0.16 0.723-0.055 0.211-0.121 0.371-0.199 0.476-0.16 0.297-0.297 0.707-0.403 1.242 0 0.028-0.093 0.254-0.281 0.68-0.183 0.426-0.09 0.918 0.281 1.481 0.508 0.746 1.067 1.093 1.68 1.039 0.348 0 0.656-0.067 0.922-0.2 0.184 0.055 0.293 0.055 0.32 0 0.024-0.027 0.078-0.066 0.16-0.121 0.106-0.078 0.184-0.078 0.239 0 0.082 0.082 0.148 0.094 0.199 0.039 0.027-0.027 0.082-0.105 0.16-0.238 0.055-0.082 0.082-0.187 0.082-0.32z" inkscape:connector-curvature="0"/>
      <path id="path404" style="fill-rule:evenodd;fill:#bdb921" d="m16.199 20.841c0.586-0.106 1.016-0.403 1.281-0.879 0.051-0.082 0.188-0.227 0.399-0.442 0.16-0.16 0.266-0.32 0.32-0.48 0.133-0.348 0.133-0.762 0-1.238-0.133-0.508-0.414-0.907-0.84-1.204-0.105-0.105-0.293-0.105-0.558 0-0.215 0.11-0.403 0.243-0.563 0.403-0.105 0.105-0.199 0.277-0.277 0.519-0.16 0.453-0.254 0.707-0.281 0.758-0.106 0.242-0.172 0.508-0.2 0.801-0.027 0.48-0.054 0.762-0.082 0.84-0.023 0.32 0.055 0.562 0.243 0.722 0.16 0.161 0.347 0.227 0.558 0.2z" inkscape:connector-curvature="0"/>
      <path id="path406" style="fill-rule:evenodd;fill:#c4c022" d="m17.121 21.559c-0.082 0.028-0.226 0.055-0.441 0.082-0.293 0.024-0.602 0.012-0.918-0.043-0.297-0.027-0.469-0.05-0.524-0.078-0.183-0.054-0.41-0.199-0.679-0.441 0.535 0.562 1.027 0.828 1.48 0.801 0.348 0 0.656-0.067 0.922-0.2 0.184 0.055 0.293 0.055 0.32 0 0.024-0.027 0.078-0.066 0.16-0.121 0.106-0.078 0.184-0.078 0.239 0 0.082 0.082 0.148 0.094 0.199 0.039 0.027-0.027 0.082-0.105 0.16-0.238 0.055-0.082 0.082-0.187 0.082-0.32 0.024-0.078 0.094-0.067 0.199 0.039 0.215 0.215 0.375 0.176 0.481-0.117 0.027-0.082 0.039-0.242 0.039-0.481 0.055-0.187 0.105-0.269 0.16-0.242 0.16 0.055 0.266-0.051 0.32-0.32 0.028-0.16 0.055-0.414 0.078-0.758 0.11-0.16 0.149-0.359 0.122-0.602-0.028-0.32-0.133-0.851-0.321-1.597-0.238-0.907-0.453-1.481-0.64-1.723-0.051 0.055-0.028 0.16 0.082 0.32 0.293 0.536 0.48 1.149 0.558 1.84 0.028 0.535 0 0.895-0.078 1.082-0.055 0.106-0.055 0.266 0 0.481l0.117 0.277-0.078 0.16c-0.027 0.082-0.465-0.531-1.32-1.84-0.559-0.879-1.121-1.613-1.68-2.199-0.375-0.398-0.066 0.055 0.918 1.36 0.375 0.425 0.922 1.359 1.641 2.8 0.082 0.215 0.093 0.442 0.043 0.68 0 0.105-0.028 0.227-0.082 0.359-0.055 0.133-0.106 0.149-0.16 0.039-0.719-1.277-1.254-2.171-1.598-2.679-0.348-0.504-0.817-0.973-1.402-1.399 0.105 0.106 0.668 0.813 1.679 2.121 0.508 0.586 0.867 1.254 1.082 2 0.024 0.161 0.024 0.239 0 0.239-0.027 0-0.082-0.028-0.16-0.078-0.055-0.028-0.082 0.039-0.082 0.199-0.051 0.16-0.094 0.254-0.117 0.277-0.055 0.027-0.188-0.183-0.402-0.637-0.028-0.082-0.508-0.734-1.442-1.961l-1.078-1.121 2.359 3.282c0.133 0.187 0.121 0.386-0.039 0.597-0.054 0.082-0.574-0.371-1.558-1.359l-1.242-1.039c0.375 0.48 0.867 0.988 1.48 1.519 0.188 0.133 0.465 0.336 0.84 0.602 0.265 0.238 0.359 0.371 0.281 0.398z" inkscape:connector-curvature="0"/>
      <path id="path408" style="fill-rule:evenodd;fill:#7d7b16" d="m24.359 23.68c0.082-0.132 0.106-0.027 0.082 0.321 0.051 0.027 0.161-0.188 0.321-0.641 0.183-0.453 0.265-0.812 0.238-1.082-0.055-0.664-0.238-1.531-0.559-2.598-0.109-0.292-0.308-0.652-0.601-1.082-0.32-0.425-0.574-0.703-0.762-0.839-0.504-0.504-0.89-0.825-1.156-0.957-0.16-0.055-0.309-0.043-0.442 0.039-0.187 0.132-0.308 0.199-0.359 0.199-0.109 0.027-0.215 0.027-0.32 0-0.082-0.027-0.149-0.012-0.199 0.039-0.082 0.266-0.176 0.402-0.282 0.402-0.16-0.027-0.254 0.067-0.281 0.278-0.027 0.214-0.117 0.402-0.277 0.562-0.055 0.238-0.11 0.426-0.16 0.559-0.028 0.054-0.067 0.093-0.122 0.121-0.082 0.027-0.132 0.078-0.16 0.16l-0.199 0.559-0.043 1.082 0.442 0.636 2.199 0.961c0.187 0.028 0.48 0.293 0.883 0.801 0.398 0.535 0.543 0.879 0.437 1.039-0.105 0.106-0.066 0.121 0.121 0.039 0.078-0.051 0.172-0.105 0.281-0.156l0.118-0.16c0.054-0.055 0.121 0.011 0.203 0.199 0.078 0.184 0.144 0.266 0.199 0.238 0.105-0.054 0.238-0.293 0.398-0.719z" inkscape:connector-curvature="0"/>
      <path id="path410" style="fill-rule:evenodd;fill:#a8a51d" d="m24.48 21.399c-0.214-0.879-0.425-1.465-0.64-1.758-0.266-0.429-0.695-0.906-1.281-1.441-0.664-0.613-1.067-0.855-1.2-0.719-0.347 0.321-0.574 0.481-0.679 0.481-0.078-0.028-0.16 0.066-0.239 0.277-0.082 0.188-0.136 0.281-0.16 0.281-0.054 0.16-0.121 0.321-0.203 0.481-0.051 0.133-0.117 0.226-0.199 0.277-0.078 0.082-0.227 0.336-0.438 0.762-0.054 0.105-0.16 0.238-0.32 0.398-0.16 0.242-0.066 0.696 0.277 1.364 0.536 0.878 1.094 1.464 1.68 1.757 0.375 0.188 0.707 0.321 1 0.403l0.32 0.16c0.137-0.137 0.27-0.094 0.403 0.117 0.105 0.133 0.238 0.133 0.398 0 0.055-0.027 0.082-0.078 0.082-0.16 0.024-0.051 0.094-0.012 0.199 0.121 0.215 0.293 0.375 0.359 0.481 0.199 0.027-0.054 0.051-0.172 0.078-0.359 0.055-0.133 0.121-0.172 0.199-0.121 0.16 0.215 0.27 0.187 0.321-0.078 0.027-0.133 0.054-0.321 0.082-0.563 0.132-0.051 0.187-0.183 0.16-0.398-0.055-0.321-0.16-0.813-0.321-1.481z" inkscape:connector-curvature="0"/>
      <path id="path412" style="fill-rule:evenodd;fill:#bdb921" d="m21.281 22.802c0.614 0.265 1.067 0.277 1.36 0.039 0.054-0.055 0.187-0.094 0.398-0.121 0.215-0.055 0.348-0.122 0.402-0.2 0.106-0.265 0.106-0.601 0-1-0.136-0.453-0.414-0.933-0.839-1.441-0.11-0.16-0.297-0.266-0.563-0.32-0.238-0.051-0.453-0.051-0.641 0-0.105 0.027-0.199 0.121-0.277 0.281-0.133 0.215-0.226 0.359-0.281 0.441-0.106 0.133-0.172 0.305-0.199 0.52-0.028 0.265-0.067 0.48-0.121 0.64-0.079 0.211-0.028 0.438 0.16 0.68 0.16 0.238 0.359 0.399 0.601 0.481z" inkscape:connector-curvature="0"/>
      <path id="path414" style="fill-rule:evenodd;fill:#c4c022" d="m24.641 23.278c0.132-0.051 0.187-0.183 0.16-0.398-0.028-0.321-0.133-0.813-0.321-1.481-0.214-0.851-0.414-1.426-0.601-1.719-0.078-0.082-0.051 0.012 0.082 0.282 0.293 0.613 0.465 1.211 0.519 1.797 0.028 0.453-0.015 0.734-0.121 0.839-0.054 0.055-0.054 0.188 0 0.403l0.121 0.277-0.082 0.082c-0.05 0.028-0.492-0.719-1.32-2.238-0.504-0.91-1.078-1.817-1.719-2.723-1.199-1.734-0.894-1.199 0.922 1.602 0.531 0.824 1.094 1.894 1.68 3.199 0.078 0.16 0.078 0.348 0 0.559 0 0.082-0.027 0.16-0.082 0.242-0.051 0.078-0.117 0.051-0.199-0.082-0.321-0.774-0.84-1.785-1.559-3.039-0.348-0.614-0.828-1.254-1.441-1.918l1.679 2.636c0.426 0.614 0.786 1.348 1.082 2.204 0.028 0.16 0.028 0.226 0 0.199-0.027 0-0.082-0.039-0.16-0.121-0.054-0.055-0.082-0.012-0.082 0.121-0.054 0.105-0.094 0.16-0.121 0.16-0.051-0.027-0.199-0.281-0.437-0.762-0.133-0.371-0.614-1.16-1.442-2.359l-1.078-1.52 2.399 3.961c0.132 0.239 0.105 0.387-0.079 0.438-0.054 0.027-0.574-0.625-1.562-1.957l-1.277-1.524c0.078 0.11 0.57 0.789 1.476 2.043 0.856 0.985 1.242 1.465 1.16 1.438-0.426-0.16-0.89-0.399-1.398-0.719-0.481-0.293-0.895-0.668-1.238-1.121 0.503 0.75 1 1.242 1.476 1.48 0.375 0.188 0.707 0.321 1 0.403l0.32 0.16c0.137-0.137 0.27-0.094 0.403 0.117 0.105 0.133 0.238 0.133 0.398 0 0.055-0.027 0.082-0.078 0.082-0.16 0.024-0.051 0.094-0.012 0.199 0.121 0.215 0.293 0.375 0.359 0.481 0.199 0.027-0.054 0.051-0.172 0.078-0.359 0.055-0.133 0.121-0.172 0.199-0.121 0.16 0.215 0.27 0.187 0.321-0.078 0.027-0.133 0.054-0.321 0.082-0.563z" inkscape:connector-curvature="0"/>
      <path id="path416" style="fill-rule:evenodd;fill:#7d7b16" d="m19.961 23.079c0.051-0.16 0.078-0.078 0.078 0.242 0.32-1.016 0.441-1.695 0.359-2.043-0.078-0.531-0.332-1.223-0.757-2.078-0.106-0.187-0.321-0.359-0.641-0.52-0.32-0.187-0.574-0.281-0.762-0.281-0.504-0.105-0.879-0.121-1.117-0.039-0.16 0.028-0.293 0.133-0.402 0.32-0.211 0.293-0.321 0.454-0.321 0.481-0.078 0.105-0.171 0.184-0.277 0.238-0.109 0.055-0.176 0.106-0.199 0.16-0.137 0.375-0.215 0.575-0.242 0.602-0.078 0.078-0.149 0.238-0.2 0.48 0 0.239-0.066 0.493-0.199 0.758-0.027 0.266-0.054 0.481-0.082 0.641-0.133 0.133-0.211 0.293-0.238 0.48-0.082 0.293-0.121 0.52-0.121 0.68l0.039 1.078 0.48 0.242 2.082-0.679c0.161-0.106 0.454-0.067 0.879 0.121 0.399 0.211 0.559 0.41 0.481 0.597-0.055 0.188-0.016 0.188 0.121 0 0.078-0.105 0.156-0.226 0.238-0.359l0.078-0.238c0.055-0.082 0.121-0.067 0.203 0.039 0.106 0.078 0.184 0.094 0.239 0.039 0.105-0.16 0.199-0.481 0.281-0.961z" inkscape:connector-curvature="0"/>
      <path id="path418" style="fill-rule:evenodd;fill:#a8a51d" d="m18.961 24.52c0-0.027 0.027-0.121 0.078-0.281 0-0.051 0.055-0.051 0.16 0 0.215 0.133 0.375 0.066 0.481-0.199 0.027-0.055 0.039-0.172 0.039-0.36 0.027-0.187 0.066-0.265 0.121-0.242 0.16 0 0.265-0.105 0.32-0.316 0-0.402 0.012-0.617 0.039-0.641 0.082-0.109 0.106-0.269 0.082-0.48-0.375-1.336-0.761-2.133-1.16-2.403-0.32-0.183-0.762-0.32-1.32-0.398-0.641-0.105-1.028-0.039-1.16 0.199-0.293 0.586-0.481 0.906-0.563 0.961-0.051 0.055-0.105 0.199-0.156 0.442-0.055 0.265-0.094 0.398-0.121 0.398-0.055 0-0.082 0.066-0.082 0.199-0.024 0.188-0.051 0.309-0.078 0.36-0.028 0.187-0.082 0.347-0.161 0.48-0.054 0.106-0.16 0.453-0.32 1.039l-0.238 0.602c-0.16 0.32-0.043 0.668 0.359 1.039 0.531 0.48 1.106 0.629 1.719 0.441 0.348-0.082 0.652-0.199 0.922-0.359 0.183 0 0.293-0.028 0.316-0.082 0.16-0.16 0.282-0.227 0.364-0.199 0.078 0.054 0.144 0.054 0.199 0 0.027-0.028 0.078-0.094 0.16-0.2z" inkscape:connector-curvature="0"/>
      <path id="path420" style="fill-rule:evenodd;fill:#bdb921" d="m18.32 23.559c0.055-0.078 0.172-0.226 0.36-0.437 0.16-0.188 0.265-0.336 0.32-0.442 0.105-0.32 0.078-0.64-0.078-0.96-0.137-0.266-0.43-0.52-0.883-0.758-0.266-0.11-0.641 0.078-1.117 0.558-0.11 0.106-0.188 0.266-0.242 0.481-0.106 0.32-0.188 0.547-0.239 0.679-0.082 0.188-0.121 0.399-0.121 0.641 0 0.344-0.015 0.574-0.039 0.68-0.027 0.265 0.051 0.437 0.239 0.519 0.16 0.078 0.347 0.078 0.558 0 0.617-0.187 1.027-0.507 1.242-0.961z" inkscape:connector-curvature="0"/>
      <path id="path422" style="fill-rule:evenodd;fill:#c4c022" d="m18.922 24.239c-0.027 0.16-0.055 0.254-0.082 0.281-0.028 0.028-0.172-0.121-0.442-0.441-0.105-0.133-0.625-0.531-1.558-1.199l-1.121-0.602 2.519 2c0.137 0.11 0.137 0.254 0 0.442-0.078 0.082-0.613-0.149-1.597-0.68-0.961-0.399-1.403-0.574-1.321-0.52 0.106 0.051 0.625 0.332 1.559 0.84 0.187 0.055 0.48 0.149 0.883 0.281 0.265 0.106 0.359 0.184 0.277 0.239-0.293 0.16-0.734 0.265-1.32 0.32-0.293 0.055-0.481 0.078-0.559 0.078-0.16 0-0.387-0.066-0.68-0.199 0.508 0.32 1.012 0.414 1.52 0.281 0.348-0.082 0.652-0.199 0.922-0.359 0.183 0 0.293-0.028 0.316-0.082 0.16-0.16 0.282-0.227 0.364-0.199 0.078 0.054 0.144 0.054 0.199 0 0.027-0.028 0.078-0.094 0.16-0.2 0-0.027 0.027-0.121 0.078-0.281 0-0.051 0.055-0.051 0.16 0 0.215 0.133 0.375 0.066 0.481-0.199 0.027-0.055 0.039-0.172 0.039-0.36 0.027-0.187 0.066-0.265 0.121-0.242 0.16 0 0.265-0.105 0.32-0.316 0-0.402 0.012-0.617 0.039-0.641 0.082-0.109 0.106-0.269 0.082-0.48-0.375-1.309-0.761-2.094-1.16-2.36-0.055 0-0.016 0.067 0.117 0.2 0.321 0.347 0.535 0.785 0.641 1.32 0.082 0.371 0.082 0.664 0 0.879-0.051 0.082-0.039 0.199 0.043 0.359l0.117 0.199-0.078 0.161c-0.027 0.054-0.496-0.332-1.402-1.161-0.637-0.531-1.239-0.984-1.797-1.359-0.27-0.16-0.27-0.105 0 0.16 0.293 0.242 0.613 0.481 0.957 0.723 0.269 0.156 0.629 0.476 1.082 0.957 0.238 0.266 0.492 0.547 0.758 0.84 0.109 0.136 0.121 0.308 0.043 0.519 0 0.375-0.082 0.508-0.243 0.403-0.746-0.856-1.32-1.442-1.718-1.762-0.243-0.211-0.575-0.414-1-0.598-0.508-0.242-0.653-0.293-0.442-0.16l1.762 1.277c0.531 0.321 0.918 0.762 1.16 1.321 0.051 0.109 0.067 0.16 0.039 0.16h-0.16c-0.055-0.024-0.078 0.027-0.078 0.16z" inkscape:connector-curvature="0"/>
      <path id="path424" style="fill-rule:evenodd;fill:#cc3300" d="m25.52 16.001c0.027-0.082 0.933 0.051 2.718 0.398 0.907 0.188 1.801 0.375 2.684 0.563h0.039c-0.238-0.43-0.559-0.883-0.961-1.364-0.824-0.957-1.68-1.546-2.559-1.757-1.519-0.348-2.761-0.161-3.718 0.558-0.43 0.348-0.735 0.707-0.922 1.082-0.106 0.239-0.215 0.625-0.321 1.16-0.054 0.372-0.054 0.758 0 1.161l0.082 0.519c1.918-1.441 2.903-2.215 2.958-2.32z" inkscape:connector-curvature="0"/>
      <path id="path426" style="fill-rule:evenodd;fill:#f7ee99" d="m23 19.598 1.078-0.636c0.856-0.453 1.668-0.801 2.442-1.043 1.386-0.426 2.867-0.746 4.441-0.957-0.668-0.508-1.481-0.949-2.441-1.321-1.895-0.773-3.493-0.867-4.801-0.281-0.957 0.426-1.371 1.266-1.239 2.52l0.52 1.718z" inkscape:connector-curvature="0"/>
      <path id="path428" style="fill-rule:evenodd;fill:#fff7b0" d="m25.801 16.438c0.078 0.215 0.105 0.321 0.078 0.321-0.348-0.504-0.559-0.746-0.641-0.719-0.05 0-0.066 0.133-0.039 0.398 0 0.297-0.011 0.469-0.039 0.524-0.055 0.051-0.199-0.055-0.441-0.321-0.293-0.296-0.481-0.453-0.559-0.48-0.082-0.027-0.148 0.027-0.199 0.16-0.027 0.133-0.027 0.266 0 0.399 0 0.105 0.305 0.293 0.918 0.558 0.242 0.11 0.133 0.203-0.32 0.281h-0.321c0.188 0.215 0.242 0.36 0.16 0.442-0.05 0.051-0.199-0.028-0.437-0.242-0.32-0.293-0.563-0.465-0.723-0.52-0.211-0.078-0.293-0.012-0.238 0.199 0.027 0.242 0.094 0.375 0.199 0.403 0.188 0.347 0.242 0.531 0.16 0.558-0.078 0.055-0.011 0.188 0.2 0.403 0.136 0.105 0.015 0.183-0.36 0.238-0.054 0.133 0.149 0.148 0.602 0.039l0.039 0.043c0.855-0.508 1.746-0.91 2.68-1.203 1.441-0.399 2.707-0.68 3.8-0.84l-0.199-0.078-0.281-0.16c-0.215 0.027-0.375 0.011-0.481-0.039-0.105-0.11-0.281-0.161-0.519-0.161-0.133-0.027-0.215-0.015-0.242 0.039-0.024 0.079-0.051 0.122-0.078 0.122-0.106 0-0.188-0.122-0.243-0.364 0-0.238-0.172-0.383-0.519-0.437-0.106-0.028-0.16 0.012-0.16 0.121 0.027 0.105 0.054 0.172 0.082 0.199 0.16 0.16 0.132 0.293-0.082 0.399-0.133 0.054-0.239-0.012-0.321-0.2-0.132-0.265-0.222-0.414-0.277-0.441-0.105-0.078-0.215-0.133-0.32-0.16-0.133-0.024-0.215-0.012-0.242 0.043 0.054 0.343 0.054 0.547 0 0.597-0.024 0-0.145-0.066-0.36-0.199-0.183-0.16-0.305-0.238-0.359-0.238-0.051 0-0.024 0.105 0.082 0.316z" inkscape:connector-curvature="0"/>
      <path id="path430" style="fill-rule:evenodd;fill:#ebe28f" d="m30.238 16.841c-0.906 0.238-1.531 0.332-1.879 0.281l-1.398-0.121c-0.106-0.028-0.227-0.039-0.359-0.039-0.215 0-0.387 0.039-0.524 0.117-0.133 0.055-0.293 0.199-0.476 0.441-0.27 0.293-0.43 0.465-0.481 0.52-0.746 0.48-1.359 0.945-1.84 1.398 1.117-0.691 2.199-1.199 3.239-1.519 1.386-0.426 2.867-0.746 4.441-0.957-0.348-0.297-0.789-0.574-1.32-0.84-1.094-0.563-2.133-0.844-3.121-0.844 1.519 0.215 2.761 0.735 3.718 1.563z" inkscape:connector-curvature="0"/>
      <path id="path432" style="fill-rule:evenodd;fill:#8c753b" d="m25.559 18.001c0.027-0.133-0.039-0.254-0.2-0.36-0.105-0.082-0.199-0.121-0.281-0.121-0.105 0-0.144 0.051-0.117 0.16 0.027 0.079 0.133 0.161 0.32 0.239 0.106 0.027 0.199 0.054 0.278 0.082z" inkscape:connector-curvature="0"/>
      <path id="path434" style="fill-rule:evenodd;fill:#8c753b" d="m26.359 17.52 0.121-0.32c0-0.078-0.039-0.16-0.121-0.238-0.078-0.11-0.16-0.121-0.238-0.043-0.109 0.054-0.094 0.176 0.039 0.359 0.055 0.082 0.121 0.16 0.199 0.242z" inkscape:connector-curvature="0"/>
      <path id="path436" style="fill-rule:evenodd;fill:#8c753b" d="m27.641 17.321 0.359-0.121c0.105-0.105 0.094-0.199-0.039-0.281-0.055-0.051-0.121 0-0.199 0.16l-0.121 0.242z" inkscape:connector-curvature="0"/>
      <path id="path438" style="fill-rule:evenodd;fill:#fffdeb" d="m25.16 17.841c0.188 0.078 0.188 0.027 0-0.161-0.082-0.054-0.121-0.054-0.121 0 0.027 0.079 0.066 0.133 0.121 0.161z" inkscape:connector-curvature="0"/>
      <path id="path440" style="fill-rule:evenodd;fill:#fffdeb" d="m26.238 17.278c0.055 0.027 0.082 0.016 0.082-0.039-0.027-0.078-0.066-0.133-0.121-0.16-0.078-0.051-0.066 0.016 0.039 0.199z" inkscape:connector-curvature="0"/>
      <path id="path442" style="fill-rule:evenodd;fill:#cc3300" d="m20.84 16.2 0.039 0.68c2.266-1.84 3.441-2.84 3.519-3 0.055-0.106 1.028 0.093 2.922 0.601 0.961 0.266 1.907 0.532 2.84 0.797l0.039-0.039c-0.211-0.559-0.508-1.16-0.879-1.801-0.8-1.25-1.668-2.023-2.601-2.316-1.547-0.535-2.918-0.32-4.117 0.637-0.508 0.429-0.883 0.894-1.122 1.402-0.16 0.293-0.32 0.801-0.48 1.519-0.105 0.481-0.16 0.985-0.16 1.52z" inkscape:connector-curvature="0"/>
      <path id="path444" style="fill-rule:evenodd;fill:#f7ee99" d="m21.199 18.559 1.242-0.8c1.012-0.559 1.946-0.985 2.797-1.278 1.551-0.535 3.203-0.933 4.961-1.203-0.664-0.664-1.492-1.265-2.48-1.797-1.973-1.043-3.707-1.187-5.199-0.441-1.094 0.535-1.641 1.613-1.641 3.238l0.32 2.281z" inkscape:connector-curvature="0"/>
      <path id="path446" style="fill-rule:evenodd;fill:#fff7b0" d="m21.48 17.88c-0.027 0.054 0.067 0.082 0.282 0.082 0.16 0 0.293-0.016 0.398-0.043h0.039c1.227-0.719 2.242-1.199 3.039-1.438 1.254-0.453 2.657-0.816 4.203-1.082l-0.16-0.078-0.281-0.199c-0.078-0.055-0.188-0.067-0.32-0.043-0.106 0-0.188-0.012-0.239-0.039-0.082-0.055-0.148-0.094-0.203-0.121-0.078-0.051-0.183-0.094-0.316-0.117-0.16-0.028-0.254 0-0.281 0.078-0.028 0.082-0.067 0.121-0.121 0.121-0.161 0.027-0.215-0.133-0.161-0.481 0-0.32-0.187-0.507-0.558-0.558-0.215-0.082-0.242 0.051-0.082 0.398 0.109 0.238 0.054 0.414-0.16 0.52-0.133 0.054-0.239-0.039-0.321-0.282-0.105-0.32-0.183-0.503-0.238-0.558-0.105-0.106-0.227-0.172-0.359-0.199-0.133-0.028-0.227-0.016-0.282 0.039 0.028 0.425 0 0.679-0.078 0.761-0.027 0.024-0.136-0.066-0.32-0.281-0.188-0.215-0.309-0.305-0.359-0.281-0.055 0.027-0.043 0.16 0.039 0.402 0.054 0.266 0.066 0.399 0.039 0.399-0.321-0.668-0.535-0.973-0.641-0.918-0.051 0-0.078 0.172-0.078 0.519 0 0.371-0.027 0.598-0.082 0.68-0.051 0.078-0.211-0.066-0.481-0.441-0.293-0.399-0.464-0.614-0.519-0.641-0.184-0.051-0.277 0.187-0.277 0.723-0.028 0.105 0.078 0.238 0.32 0.398 0.133 0.078 0.344 0.199 0.637 0.359 0.242 0.161 0.109 0.282-0.399 0.36-0.082-0.024-0.148-0.039-0.199-0.039-0.082 0-0.121 0.027-0.121 0.082 0.16 0.238 0.187 0.426 0.082 0.558-0.055 0.051-0.203-0.066-0.442-0.359-0.32-0.375-0.558-0.602-0.718-0.68-0.242-0.109-0.348-0.015-0.321 0.278 0.028 0.32 0.094 0.48 0.2 0.48 0.054 0.027 0.093 0.149 0.121 0.359 0.05 0.243 0.05 0.387 0 0.442-0.082 0.055-0.028 0.215 0.16 0.48 0.078 0.078 0.039 0.145-0.121 0.2-0.215 0.054-0.321 0.105-0.321 0.16z" inkscape:connector-curvature="0"/>
      <path id="path448" style="fill-rule:evenodd;fill:#ebe28f" d="m24.281 15.88c-0.293 0.398-0.48 0.64-0.562 0.718-0.879 0.59-1.614 1.176-2.199 1.762 1.468-0.906 2.707-1.535 3.718-1.879 1.551-0.535 3.203-0.933 4.961-1.203-0.347-0.371-0.801-0.746-1.359-1.117-1.121-0.773-2.215-1.176-3.281-1.199 1.601 0.316 2.882 1.039 3.839 2.16-0.984 0.293-1.679 0.398-2.078 0.316l-1.48-0.199c-0.399-0.105-0.735-0.078-1 0.082-0.16 0.078-0.348 0.266-0.559 0.559z" inkscape:connector-curvature="0"/>
      <path id="path450" style="fill-rule:evenodd;fill:#8c753b" d="m24.16 16.52c0.051-0.16 0.012-0.32-0.121-0.48-0.105-0.106-0.211-0.16-0.32-0.16-0.106 0-0.16 0.066-0.16 0.199 0 0.109 0.109 0.215 0.32 0.32 0.082 0.055 0.176 0.094 0.281 0.121z" inkscape:connector-curvature="0"/>
      <path id="path452" style="fill-rule:evenodd;fill:#8c753b" d="m25.121 15.919 0.16-0.438c0-0.109-0.027-0.215-0.082-0.32-0.078-0.106-0.172-0.121-0.277-0.039-0.11 0.078-0.11 0.238 0 0.476l0.199 0.321z" inkscape:connector-curvature="0"/>
      <path id="path454" style="fill-rule:evenodd;fill:#8c753b" d="m26.559 15.68 0.402-0.16c0.105-0.16 0.094-0.281-0.039-0.359-0.055-0.082-0.137-0.016-0.242 0.199l-0.121 0.32z" inkscape:connector-curvature="0"/>
      <path id="path456" style="fill-rule:evenodd;fill:#fffdeb" d="m23.762 16.278c0.133 0.082 0.199 0.082 0.199 0-0.027-0.051-0.082-0.117-0.16-0.199-0.082-0.051-0.121-0.039-0.121 0.043 0 0.078 0.027 0.133 0.082 0.156z" inkscape:connector-curvature="0"/>
      <path id="path458" style="fill-rule:evenodd;fill:#fffdeb" d="m25 15.598c0.055 0.055 0.078 0.043 0.078-0.039 0-0.105-0.023-0.187-0.078-0.238-0.055-0.055-0.078-0.027-0.078 0.078 0 0.082 0.023 0.149 0.078 0.199z" inkscape:connector-curvature="0"/>
      <path id="path460" style="fill-rule:evenodd;fill:#db4200" d="m28.078 13.2c0.32 0.078 0.414-0.027 0.281-0.32-0.105-0.266-0.332-0.481-0.679-0.641-0.508-0.238-0.895-0.226-1.16 0.039-0.161 0.16 0.359 0.469 1.558 0.922z" inkscape:connector-curvature="0"/>
      <path id="path462" style="fill-rule:evenodd;fill:#cc3300" d="m18.84 16.438 0.199 0.641c1.602-2.879 2.414-4.414 2.441-4.598 0.028-0.109 0.946-0.359 2.758-0.761 0.907-0.188 1.817-0.36 2.723-0.52h0.039c-0.188-0.559-0.48-1.078-0.879-1.559-0.801-1.015-1.773-1.402-2.922-1.16-1.652 0.348-2.84 1.172-3.558 2.481-0.668 1.226-1 2.519-1 3.879 0 0.531 0.066 1.066 0.199 1.597z" inkscape:connector-curvature="0"/>
      <path id="path464" style="fill-rule:evenodd;fill:#f7ee99" d="m19.68 18.641 0.961-1.402c0.773-1.039 1.504-1.906 2.199-2.598 1.281-1.226 2.668-2.375 4.16-3.441-0.746-0.375-1.625-0.586-2.641-0.641-2-0.16-3.586 0.481-4.757 1.922-0.856 1.067-1.094 2.414-0.723 4.039 0.187 0.801 0.453 1.508 0.801 2.121z" inkscape:connector-curvature="0"/>
      <path id="path466" style="fill-rule:evenodd;fill:#fff7b0" d="m19.801 17.802c0 0.078 0.078 0.078 0.238 0 0.133-0.082 0.242-0.161 0.32-0.243l0.082-0.039c0.825-1.175 1.625-2.132 2.399-2.879 0.719-0.695 1.894-1.695 3.519-3h-0.16l-0.32-0.082c-0.078 0-0.172 0.028-0.277 0.082-0.082 0.079-0.149 0.118-0.204 0.118l-0.199-0.079c-0.105 0-0.226 0.028-0.359 0.079-0.133 0.054-0.199 0.121-0.199 0.203-0.028 0.105-0.055 0.172-0.082 0.199-0.106 0.051-0.2-0.082-0.278-0.402-0.027-0.293-0.226-0.414-0.601-0.36-0.106 0.028-0.149 0.106-0.121 0.242 0.027 0.106 0.066 0.184 0.121 0.239 0.16 0.16 0.148 0.347-0.039 0.558-0.082 0.137-0.188 0.094-0.321-0.117-0.187-0.266-0.308-0.414-0.359-0.441-0.106-0.051-0.227-0.067-0.359-0.039-0.133 0.027-0.215 0.078-0.243 0.16 0.133 0.453 0.172 0.719 0.121 0.801-0.027 0.05-0.148 0.011-0.359-0.122-0.242-0.105-0.375-0.148-0.402-0.121-0.051 0.055-0.012 0.188 0.121 0.403 0.133 0.238 0.187 0.359 0.16 0.359s-0.16-0.121-0.398-0.359c-0.215-0.242-0.348-0.336-0.403-0.282-0.054 0.055-0.039 0.254 0.039 0.598 0.082 0.375 0.11 0.602 0.082 0.684-0.027 0.105-0.187 0.039-0.48-0.203-0.371-0.266-0.586-0.399-0.641-0.399-0.16 0-0.199 0.293-0.121 0.879 0.027 0.106 0.16 0.188 0.402 0.242 0.133 0.028 0.348 0.051 0.641 0.078 0.238 0.028 0.145 0.2-0.281 0.52-0.215 0-0.305 0.055-0.281 0.16 0.187 0.188 0.253 0.359 0.203 0.52-0.028 0.109-0.188 0.066-0.481-0.118-0.375-0.242-0.64-0.363-0.801-0.363-0.242 0-0.308 0.149-0.199 0.442 0.078 0.293 0.172 0.425 0.278 0.402 0.242 0.371 0.336 0.613 0.281 0.719-0.051 0.078-0.051 0.144 0 0.199 0.027 0.027 0.105 0.094 0.238 0.199 0.082 0.055 0.067 0.149-0.039 0.281-0.16 0.16-0.238 0.254-0.238 0.282z" inkscape:connector-curvature="0"/>
      <path id="path468" style="fill-rule:evenodd;fill:#ebe28f" d="m23.078 13.161c-0.105 0.027-0.223 0.066-0.359 0.117-0.211 0.11-0.387 0.242-0.52 0.402-0.105 0.161-0.226 0.454-0.359 0.879-0.16 0.454-0.281 0.762-0.36 0.922-0.668 1.012-1.187 1.946-1.558 2.797 0.957-1.437 1.933-2.652 2.918-3.637 1.281-1.226 2.668-2.375 4.16-3.441-0.398-0.215-0.895-0.387-1.48-0.52-1.172-0.242-2.239-0.121-3.2 0.36 0.961-0.266 1.907-0.293 2.84-0.078 0.481 0.133 0.852 0.277 1.121 0.437-0.855 0.746-1.453 1.16-1.801 1.242-0.558 0.161-1.027 0.332-1.402 0.52z" inkscape:connector-curvature="0"/>
      <path id="path470" style="fill-rule:evenodd;fill:#8c753b" d="m21.879 15.2c0.027-0.187-0.051-0.32-0.238-0.398-0.133-0.055-0.243-0.055-0.321 0-0.082 0.05-0.105 0.144-0.082 0.277 0.028 0.109 0.149 0.16 0.364 0.16 0.105 0 0.199-0.012 0.277-0.039z" inkscape:connector-curvature="0"/>
      <path id="path472" style="fill-rule:evenodd;fill:#8c753b" d="m22.602 14.161 0.039-0.52c0-0.109-0.039-0.203-0.121-0.281-0.106-0.082-0.2-0.055-0.282 0.078-0.078 0.137-0.039 0.297 0.121 0.481l0.243 0.242z" inkscape:connector-curvature="0"/>
      <path id="path474" style="fill-rule:evenodd;fill:#8c753b" d="m23.84 13.278 0.32-0.359c0.051-0.184 0.012-0.305-0.121-0.36-0.051-0.027-0.105 0.082-0.16 0.321l-0.039 0.398z" inkscape:connector-curvature="0"/>
      <path id="path476" style="fill-rule:evenodd;fill:#fffdeb" d="m21.48 15.161c0.133 0.027 0.188 0.012 0.161-0.039-0.028-0.082-0.094-0.137-0.2-0.16-0.082-0.028-0.109 0-0.082 0.078 0.028 0.082 0.067 0.121 0.121 0.121z" inkscape:connector-curvature="0"/>
      <path id="path478" style="fill-rule:evenodd;fill:#fffdeb" d="m22.398 13.919c0.082 0.027 0.122-0.012 0.122-0.117-0.028-0.082-0.079-0.137-0.161-0.161-0.078-0.027-0.105 0-0.078 0.079 0.024 0.105 0.067 0.175 0.117 0.199z" inkscape:connector-curvature="0"/>
      <path id="path480" style="fill-rule:evenodd;fill:#db4200" d="m25.039 10.001c0.348 0.078 0.496 0 0.441-0.242-0.082-0.239-0.226-0.426-0.441-0.559-0.238-0.16-0.613-0.238-1.117-0.238-0.32 0-0.656 0.332-1 1-0.082 0.16 0.156 0.199 0.719 0.117 0.746-0.106 1.214-0.133 1.398-0.078z" inkscape:connector-curvature="0"/>
      <path id="path482" style="fill-rule:evenodd;fill:#cc3300" d="m16.922 16.161c0.851-3.254 1.266-4.973 1.238-5.16-0.027-0.133 0.774-0.563 2.399-1.281 0.8-0.348 1.601-0.68 2.402-1v-0.079c-0.266-0.48-0.629-0.921-1.082-1.32-0.957-0.828-1.973-1.066-3.039-0.723-1.414 0.454-2.332 1.497-2.762 3.122-0.316 1.386-0.332 2.785-0.039 4.199 0.133 0.562 0.32 1.094 0.563 1.601l0.32 0.641z" inkscape:connector-curvature="0"/>
      <path id="path484" style="fill-rule:evenodd;fill:#f7ee99" d="m17.879 17.641 0.562-1.562c0.481-1.227 0.973-2.25 1.481-3.078 0.879-1.496 1.906-2.934 3.078-4.321-0.801-0.242-1.668-0.308-2.602-0.199-1.89 0.211-3.226 1.16-4 2.84-0.558 1.25-0.476 2.68 0.243 4.277 0.371 0.801 0.785 1.481 1.238 2.043z" inkscape:connector-curvature="0"/>
      <path id="path486" style="fill-rule:evenodd;fill:#fff7b0" d="m17.602 15.759c-0.028 0.136 0.093 0.254 0.359 0.363 0.078 0.051 0.078 0.156 0 0.316-0.106 0.188-0.16 0.297-0.16 0.321 0.027 0.082 0.105 0.054 0.238-0.079 0.106-0.082 0.188-0.171 0.242-0.281h0.039c0.508-1.332 1.039-2.465 1.602-3.398 0.691-1.199 1.547-2.442 2.558-3.723l-0.16 0.043-0.281-0.043c-0.078 0-0.16 0.055-0.238 0.16-0.082 0.082-0.149 0.121-0.199 0.121-0.137-0.078-0.297-0.05-0.481 0.082-0.133 0.079-0.187 0.172-0.16 0.278 0 0.109-0.016 0.176-0.039 0.203-0.055 0.051-0.176-0.067-0.363-0.363-0.133-0.321-0.332-0.399-0.598-0.239-0.188 0.051-0.16 0.215 0.078 0.481 0.055 0 0.094 0.051 0.121 0.16 0.078 0.133 0.078 0.277 0 0.437-0.055 0.137-0.16 0.11-0.32-0.078-0.238-0.242-0.387-0.375-0.442-0.398-0.132-0.027-0.253-0.016-0.359 0.039-0.133 0.051-0.184 0.117-0.16 0.199 0.187 0.426 0.281 0.695 0.281 0.801 0 0.051-0.121 0.039-0.359-0.039-0.242-0.082-0.375-0.109-0.403-0.082-0.05 0.055 0.016 0.187 0.204 0.398 0.16 0.215 0.226 0.336 0.199 0.364-0.508-0.481-0.801-0.657-0.879-0.524-0.027 0.055 0.039 0.242 0.199 0.563 0.16 0.371 0.238 0.613 0.238 0.718-0.027 0.106-0.199 0.067-0.519-0.121-0.399-0.211-0.625-0.304-0.68-0.277-0.187 0.027-0.16 0.32 0.078 0.879 0.055 0.133 0.203 0.199 0.442 0.199 0.132 0 0.332-0.012 0.601-0.039 0.239 0 0.199 0.188-0.121 0.559-0.055 0.027-0.105 0.054-0.16 0.082-0.078 0.054-0.105 0.105-0.078 0.16 0 0.051 0.066 0.133 0.199 0.238 0.106 0.082 0.145 0.176 0.117 0.281 0 0.106-0.16 0.094-0.476-0.039-0.403-0.187-0.684-0.269-0.84-0.242-0.188 0.027-0.215 0.188-0.082 0.481 0.16 0.293 0.281 0.414 0.359 0.359 0.321 0.348 0.453 0.574 0.403 0.68z" inkscape:connector-curvature="0"/>
      <path id="path488" style="fill-rule:evenodd;fill:#ebe28f" d="m18.961 13.04c-0.055 0.586-0.094 0.945-0.121 1.082-0.371 1.144-0.641 2.183-0.801 3.117 0.563-1.68 1.188-3.094 1.883-4.238 0.879-1.496 1.906-2.934 3.078-4.321-0.426-0.16-0.922-0.253-1.48-0.281-1.172-0.027-2.145 0.293-2.918 0.961 0.824-0.453 1.691-0.64 2.597-0.558 0.481 0.023 0.867 0.105 1.16 0.238-0.613 0.906-1.078 1.441-1.398 1.601-0.723 0.481-1.106 0.731-1.16 0.758-0.106 0.055-0.215 0.121-0.321 0.199-0.16 0.161-0.281 0.336-0.359 0.524-0.082 0.183-0.133 0.492-0.16 0.918z" inkscape:connector-curvature="0"/>
      <path id="path490" style="fill-rule:evenodd;fill:#8c753b" d="m19.16 13.72c-0.027-0.188-0.133-0.305-0.32-0.36-0.32-0.082-0.426 0.028-0.32 0.32 0.054 0.106 0.175 0.149 0.359 0.122 0.109-0.028 0.199-0.055 0.281-0.082z" inkscape:connector-curvature="0"/>
      <path id="path492" style="fill-rule:evenodd;fill:#8c753b" d="m19.559 12.559-0.039-0.558c-0.239-0.348-0.387-0.387-0.442-0.121-0.051 0.16 0.016 0.32 0.203 0.48 0.078 0.078 0.172 0.145 0.278 0.199z" inkscape:connector-curvature="0"/>
      <path id="path494" style="fill-rule:evenodd;fill:#8c753b" d="m20.52 11.399 0.199-0.398c0.054-0.242 0-0.36-0.16-0.36-0.079-0.027-0.106 0.094-0.079 0.36l0.04 0.398z" inkscape:connector-curvature="0"/>
      <path id="path496" style="fill-rule:evenodd;fill:#fffdeb" d="m18.762 13.759c0.133 0 0.183-0.039 0.16-0.118-0.055-0.054-0.137-0.082-0.242-0.082-0.106-0.027-0.133 0-0.078 0.082 0.05 0.079 0.105 0.118 0.16 0.118z" inkscape:connector-curvature="0"/>
      <path id="path498" style="fill-rule:evenodd;fill:#fffdeb" d="m19.359 12.321c0-0.16-0.039-0.254-0.121-0.281-0.078-0.027-0.093 0.015-0.039 0.121 0.055 0.078 0.106 0.133 0.16 0.16z" inkscape:connector-curvature="0"/>
      <path id="path500" style="fill-rule:evenodd;fill:#db4200" d="m21.039 8.001c0.43 0 0.547-0.16 0.359-0.481-0.183-0.265-0.425-0.453-0.718-0.558-0.399-0.188-0.825-0.16-1.282 0.078-0.183 0.105-0.371 0.48-0.558 1.121-0.028 0.133 0.265 0.144 0.879 0.039 0.855-0.133 1.293-0.199 1.32-0.199z" inkscape:connector-curvature="0"/>
      <path id="path502" style="fill-rule:evenodd;fill:#db4200" d="m18.641 7.161c-0.375-0.375-0.829-0.68-1.36-0.922-1.066-0.48-1.988-0.387-2.761 0.281-0.586 0.508-1.04 1.121-1.36 1.84-0.348 0.719-0.519 1.442-0.519 2.16 0.027 1.172 0.066 1.973 0.121 2.399 0.078 0.801 0.265 1.441 0.558 1.922 0.399 0.746 0.868 1.32 1.399 1.718 0-3.332-0.039-5.093-0.117-5.281-0.028-0.105 0.636-0.797 2-2.078 0.691-0.668 1.386-1.305 2.078-1.922l-0.039-0.117z" inkscape:connector-curvature="0"/>
      <path id="path504" style="fill-rule:evenodd;fill:#cc3300" d="m18.641 7.161c-0.375-0.375-0.829-0.68-1.36-0.922-1.066-0.48-1.988-0.387-2.761 0.281-0.399 0.348-0.708 0.707-0.918 1.078l-0.481 1.082c0.613-1.226 1.227-1.906 1.84-2.039 0.32-0.054 0.492 0 0.519 0.161 0.028 0.105 0.051 0.183 0.079 0.238 0.054 0.082 0.16 0.121 0.32 0.121 0.293 0 0.082 0.359-0.641 1.078-0.851 0.856-1.41 1.816-1.679 2.883l1.203-0.082c0.504-0.613 1.812-1.867 3.918-3.762l-0.039-0.117z" inkscape:connector-curvature="0"/>
      <path id="path506" style="fill-rule:evenodd;fill:#f7ee99" d="m16 17.52 0.16-1.679c0.16-1.309 0.371-2.442 0.641-3.403 0.48-1.758 1.105-3.492 1.879-5.199-0.801 0.106-1.641 0.402-2.52 0.883-1.762 0.957-2.801 2.359-3.121 4.199-0.238 1.359 0.176 2.641 1.242 3.84 0.559 0.586 1.133 1.039 1.719 1.359z" inkscape:connector-curvature="0"/>
      <path id="path508" style="fill-rule:evenodd;fill:#fff7b0" d="m17.078 9.36c-0.078 0.133-0.223 0.067-0.437-0.199-0.188-0.215-0.414-0.188-0.68 0.078-0.082 0.082-0.066 0.16 0.039 0.242 0.055 0.078 0.105 0.117 0.16 0.117 0.238 0.11 0.332 0.282 0.281 0.524-0.027 0.156-0.148 0.183-0.363 0.078-0.266-0.133-0.426-0.199-0.476-0.199-0.137 0-0.254 0.051-0.364 0.16-0.105 0.105-0.144 0.199-0.117 0.277 0.32 0.297 0.481 0.496 0.481 0.602 0 0.055-0.122 0.094-0.364 0.121-0.238 0.027-0.371 0.066-0.398 0.117-0.028 0.055 0.082 0.137 0.32 0.242 0.188 0.133 0.281 0.215 0.281 0.239 0 0.027-0.16-0.012-0.48-0.118-0.293-0.082-0.453-0.082-0.481 0 0 0.079 0.106 0.239 0.321 0.481 0.238 0.266 0.371 0.449 0.398 0.558 0.028 0.106-0.16 0.133-0.558 0.079-0.426-0.024-0.668-0.024-0.719 0-0.11 0.109 0 0.375 0.316 0.8 0.082 0.106 0.242 0.106 0.481 0 0.109-0.05 0.293-0.144 0.562-0.281 0.239-0.105 0.239 0.094 0 0.602l-0.121 0.121c-0.055 0.078-0.066 0.144-0.039 0.199 0.266 0.027 0.414 0.133 0.438 0.32 0.027 0.078-0.133 0.121-0.481 0.121-0.426 0.024-0.703 0.079-0.84 0.161-0.183 0.105-0.172 0.25 0.043 0.437 0.211 0.215 0.36 0.281 0.438 0.199 0.375 0.188 0.562 0.348 0.562 0.481 0 0.109 0.133 0.176 0.399 0.203 0.132 0.023 0.175 0.117 0.121 0.277-0.082 0.215-0.121 0.336-0.121 0.36 0.027 0.054 0.093 0 0.199-0.161 0.109-0.132 0.176-0.253 0.199-0.359l0.043-0.039c0.184-1.52 0.414-2.773 0.68-3.762 0.211-0.773 0.734-2.265 1.558-4.476l-0.121 0.117c-0.078-0.024-0.183 0-0.316 0.082-0.082 0.051-0.149 0.133-0.203 0.238-0.051 0.106-0.094 0.172-0.117 0.199-0.082 0.028-0.149 0.043-0.204 0.043-0.078 0.024-0.171 0.106-0.277 0.239-0.082 0.133-0.109 0.226-0.082 0.281 0.055 0.078 0.066 0.144 0.039 0.199z" inkscape:connector-curvature="0"/>
      <path id="path510" style="fill-rule:evenodd;fill:#ebe28f" d="m17 8.04c0.453-0.16 0.84-0.238 1.16-0.238-0.348 1.093-0.652 1.769-0.922 2.039-0.586 0.746-0.89 1.132-0.918 1.16-0.293 0.293-0.465 0.597-0.519 0.918-0.028 0.187 0 0.508 0.078 0.961 0.109 0.508 0.16 0.84 0.16 1-0.078 1.226-0.078 2.293 0 3.199 0.188-1.891 0.441-3.438 0.762-4.641 0.48-1.758 1.105-3.492 1.879-5.199-0.426 0.027-0.918 0.149-1.481 0.359-1.094 0.43-1.945 1.094-2.558 2 0.691-0.746 1.48-1.265 2.359-1.558z" inkscape:connector-curvature="0"/>
      <path id="path512" style="fill-rule:evenodd;fill:#8c753b" d="m16.238 13.438c-0.05-0.183-0.172-0.265-0.359-0.238-0.133 0.027-0.227 0.078-0.277 0.16-0.055 0.078-0.043 0.172 0.039 0.281 0.078 0.079 0.199 0.067 0.359-0.043 0.078-0.05 0.16-0.105 0.238-0.16z" inkscape:connector-curvature="0"/>
      <path id="path514" style="fill-rule:evenodd;fill:#8c753b" d="m16.359 12.161-0.199-0.481c-0.055-0.082-0.133-0.132-0.238-0.16-0.137-0.027-0.203 0.039-0.203 0.2 0 0.16 0.109 0.281 0.32 0.359 0.106 0.055 0.215 0.082 0.32 0.082z" inkscape:connector-curvature="0"/>
      <path id="path516" style="fill-rule:evenodd;fill:#8c753b" d="m17 10.72 0.078-0.481c0-0.184-0.078-0.266-0.238-0.238-0.078 0.027-0.078 0.144 0 0.359l0.16 0.36z" inkscape:connector-curvature="0"/>
      <path id="path518" style="fill-rule:evenodd;fill:#fffdeb" d="m15.879 13.598c0.133-0.027 0.176-0.078 0.121-0.16-0.078-0.05-0.16-0.05-0.238 0-0.082 0.028-0.094 0.067-0.043 0.121 0.054 0.055 0.109 0.067 0.16 0.039z" inkscape:connector-curvature="0"/>
      <path id="path520" style="fill-rule:evenodd;fill:#fffdeb" d="m16.078 12.04c0.082-0.027 0.094-0.067 0.043-0.121-0.055-0.078-0.121-0.106-0.199-0.078-0.082 0-0.082 0.027 0 0.078 0.051 0.082 0.105 0.121 0.156 0.121z" inkscape:connector-curvature="0"/>
      <path id="path522" style="fill-rule:evenodd;fill:#fffdeb" d="m16.961 10.36c0.078-0.16 0.066-0.238-0.039-0.238-0.055 0.023-0.067 0.09-0.043 0.199 0.055 0.133 0.082 0.145 0.082 0.039z" inkscape:connector-curvature="0"/>
      <path id="path524" style="fill-rule:evenodd;fill:#e64b09" d="m13.121 11.559c0.024-0.05 0.16-0.453 0.399-1.199 0.16-0.535 0.292-0.879 0.402-1.039 0.266-0.375 0.41-0.707 0.437-1 0.055-0.426-0.265-0.281-0.961 0.438-0.265 0.269-0.437 0.586-0.519 0.961-0.051 0.214-0.078 0.585-0.078 1.121-0.028 0.425 0 0.718 0.078 0.879 0.082 0.16 0.16 0.105 0.242-0.161z" inkscape:connector-curvature="0"/>
      <path id="path526" style="fill-rule:evenodd;fill:#f7733b" d="m13.078 11.04c0.16-0.348 0.227-0.652 0.203-0.918-0.027-0.242-0.093-0.297-0.203-0.16-0.105 0.105-0.156 0.343-0.156 0.718 0.023 0.399 0.078 0.52 0.156 0.36z" inkscape:connector-curvature="0"/>
    </g>
  </g>
<metadata><rdf:RDF><cc:Work><dc:format>image/svg+xml</dc:format><dc:type rdf:resource="http://purl.org/dc/dcmitype/StillImage"/><cc:license rdf:resource="http://creativecommons.org/licenses/publicdomain/"/><dc:publisher><cc:Agent rdf:about="http://openclipart.org/"><dc:title>Openclipart</dc:title></cc:Agent></dc:publisher></cc:Work><cc:License rdf:about="http://creativecommons.org/licenses/publicdomain/"><cc:permits rdf:resource="http://creativecommons.org/ns#Reproduction"/><cc:permits rdf:resource="http://creativecommons.org/ns#Distribution"/><cc:permits rdf:resource="http://creativecommons.org/ns#DerivativeWorks"/></cc:License></rdf:RDF></metadata></svg>
